<?xml version="1.0" encoding="UTF-8"?>
<svg width="331px" height="52px" viewBox="0 0 331 52" version="1.1" xmlns="http://www.w3.org/2000/svg" xmlns:xlink="http://www.w3.org/1999/xlink">
    <!-- Generator: Sketch 52.5 (67469) - http://www.bohemiancoding.com/sketch -->
    <title>Group 35</title>
    <desc>Created with Sketch.</desc>
    <g id="Mockup" stroke="none" stroke-width="1" fill="none" fill-rule="evenodd">
        <g id="Wireframe---Brands---CHOW-TAI-FOOK-JEWELLERY" transform="translate(-25.000000, -27.000000)" fill="#CCAD7B">
            <g id="Nav-02">
                <g id="Group-35" transform="translate(25.000000, 27.000000)">
                    <path d="M38.1018295,47.5315585 L41.4756682,47.5315585 L41.4756682,43.8703853 L38.1018295,43.8703853 L38.1018295,47.5315585 Z M43.1879835,45.3097461 C43.1879835,45.5973263 43.2151189,46.7812224 43.2631277,48.1074488 C43.2631277,48.561446 42.8456596,48.7884445 42.0148979,48.7884445 C41.6537879,48.7884445 41.4756682,48.6709308 41.4756682,48.4359033 L41.4756682,48.0665745 L38.1018295,48.0665745 L38.1018295,48.6015904 C38.1018295,49.0271215 37.6453976,49.2380623 36.7408832,49.2380623 C36.4528302,49.2380623 36.3157615,49.1161692 36.3157615,48.8694633 L36.3157615,48.828589 C36.3623788,47.7753448 36.3853395,46.9761054 36.3853395,46.4403596 L36.3853395,46.0921978 C36.3853395,44.6083132 36.3449842,43.1404863 36.2580117,42.4266452 C36.9016085,42.6740809 37.5563377,42.9908571 38.233332,43.3798932 L41.3225965,43.3798932 C41.8388655,42.6499942 42.1714485,42.2886942 42.3335653,42.2886942 C42.4664593,42.2886942 42.7663406,42.4959856 43.2220767,42.9215167 C43.670855,43.3470478 43.8990709,43.6353578 43.8990709,43.7849871 C43.8990709,43.8857132 43.8601072,43.9674619 43.7870503,44.0368023 C43.3772357,44.4462756 43.1726763,44.6564865 43.1726763,44.6732742 L43.1879835,45.3097461 Z M41.8103385,37.6954401 C42.4184505,36.8275902 42.758687,36.3984096 42.8345271,36.3984096 C42.9117587,36.3984096 43.1803299,36.6290577 43.6555478,37.0954631 C44.1251995,37.5611386 44.3624606,37.8450693 44.3624606,37.9428758 C44.3624606,38.0925051 44.2970573,38.1662249 44.1599885,38.1662249 L40.6525601,38.1662249 L40.6525601,40.9872844 L42.0552531,40.9872844 C42.723898,40.0143291 43.1177097,39.523837 43.2478206,39.523837 C43.3674948,39.523837 43.6687677,39.7785717 44.1384194,40.2858515 C44.6136373,40.7931313 44.8474195,41.0967692 44.8474195,41.1901963 C44.8474195,41.3850793 44.791757,41.4821559 44.6832153,41.4821559 L37.8986616,41.4821559 C36.7527115,41.4821559 35.9449106,41.5427375 35.4731715,41.6646306 L35.139197,40.6748876 C35.6359841,40.8705006 36.5787664,40.9668472 37.970327,40.9668472 L38.9207629,40.9668472 L38.9207629,38.1450578 L38.3432653,38.1450578 C37.1973151,38.1450578 36.3971678,38.2143982 35.937257,38.3516192 L35.6220685,37.3669855 C36.1188556,37.5574891 37.0637253,37.6545657 38.4566774,37.6545657 L38.9207629,37.6545657 L38.9207629,37.464792 C38.9207629,36.4378241 38.8901486,35.6071991 38.8275283,34.9743767 C40.6657799,35.3473551 41.5918635,35.6232569 41.5918635,35.7977027 C41.5918635,35.9356536 41.5181108,36.0247013 41.381042,36.0692252 C40.8842549,36.2597288 40.6372529,36.3699435 40.6372529,36.3984096 L40.6372529,37.6545657 L41.8103385,37.6954401 Z M47.0488683,49.6927894 C47.0488683,50.5037071 46.7823845,51.0832469 46.2452421,51.4401675 C45.7150575,51.8087665 45.2634961,52 44.9037777,52 C44.6915647,52 44.5711947,51.8941646 44.5524086,51.6876032 C44.3972496,50.8234029 43.5817951,50.2037186 42.0865633,49.8146825 L42.1074367,49.4453536 C43.0042975,49.5022857 43.9394262,49.5263724 44.9211722,49.5263724 C45.1702615,49.5263724 45.2982851,49.3760132 45.2982851,49.0760247 L45.2982851,34.5451961 L34.7238162,34.5451961 L34.7238162,39.1143636 C34.7238162,41.8310476 34.6827651,43.8251316 34.594401,45.1024548 C34.4990791,46.3761285 34.1247493,47.6563712 33.4790652,48.9307748 C32.8299022,50.1949599 32.0930708,51.2007606 31.2623092,51.9547463 L31,51.6876032 C31.5698441,50.8518689 32.045062,49.6635934 32.4138256,48.1315355 C32.7867638,46.5783105 32.9767118,43.7404633 32.9767118,39.6092351 L32.9767118,37.3669855 C32.9767118,35.4575698 32.8994802,34.0094503 32.7526706,33.0204372 C33.2661564,33.2145903 33.641182,33.368599 33.8888798,33.4948715 C34.1706708,33.6445008 34.518561,33.8189466 34.9318545,34.0094503 L45.054762,34.0094503 C45.6886179,33.3408628 46.071297,33 46.2104531,33 C46.3572627,33 46.6933246,33.2189697 47.2151598,33.6569091 C47.7390824,34.0948484 48,34.3824286 48,34.5203795 C48,34.6342438 47.9512954,34.719642 47.851103,34.7721947 C47.3153522,35.1283854 47.0488683,35.3517345 47.0488683,35.4495409 L47.0488683,49.6927894 Z" id="Fill-1"></path>
                    <path d="M82.3138844,39.6121563 C83.3569021,44.5361795 85.9189406,47.7597685 90,49.2829233 L89.923435,49.6729378 C89.3535313,49.8379161 88.9822632,50.1353111 88.8161316,50.5694645 C88.5994382,51.1403763 88.3906902,51.4254703 88.1963884,51.4254703 C87.7312199,51.4254703 86.8918941,50.7583213 85.6849117,49.4276411 C84.4685393,48.093343 83.5519262,46.5542692 82.9336276,44.813314 C82.3283307,43.0730825 81.9527287,41.3567294 81.8126003,39.6526773 L81.382825,39.6526773 C80.7414125,45.3921852 77.6838684,49.512301 72.2109149,52 L72,51.6505065 C73.9105136,50.4370478 75.5552167,48.7850941 76.9377207,46.6903039 C78.3296148,44.5803184 79.1342697,42.2373372 79.3545746,39.6526773 L75.5855538,39.6526773 C74.3532905,39.6526773 73.4431782,39.7206946 72.8292135,39.857453 L72.4658909,38.7966715 C73.3304976,38.9732272 74.5223114,39.0615051 76.0427769,39.0615051 L79.3935795,39.0615051 C79.485313,38.068741 79.5300963,36.8234443 79.5300963,35.3277858 C79.5300963,34.5397974 79.485313,33.76411 79.3935795,33 C80.3080257,33.1410999 81.0657303,33.2655572 81.6782504,33.3900145 C82.2821027,33.4992764 82.5833066,33.6432706 82.5833066,33.8162084 C82.5833066,33.9688857 82.5226324,34.0781476 82.3904494,34.1454414 L81.5814607,34.5926194 L81.5814607,34.9573082 C81.5814607,36.4290883 81.5280096,37.7995658 81.4254414,39.0615051 L86.2439807,39.0615051 C87.0284109,37.9327062 87.5058587,37.3690304 87.6727127,37.3690304 C87.8308989,37.3690304 88.2086677,37.6512301 88.8161316,38.2214182 C89.4077047,38.7966715 89.7089085,39.1664255 89.7089085,39.3263386 C89.7089085,39.5441389 89.6287319,39.6526773 89.4719904,39.6526773 L82.3138844,39.6121563 Z" id="Fill-3"></path>
                    <path d="M124.978725,50.0547961 L127.356583,50.0547961 L127.356583,47.1014728 L124.978725,47.1014728 L124.978725,50.0547961 Z M124.978725,46.6185801 L127.356583,46.6185801 L127.356583,43.845355 L124.978725,43.845355 L124.978725,46.6185801 Z M122.064024,40.6322885 L126.298644,40.6322885 L126.298644,37.7342145 L122.064024,37.7342145 L122.064024,40.6322885 Z M121.030421,50.0547961 L123.237205,50.0547961 L123.237205,47.1014728 L121.030421,47.1014728 L121.030421,50.0547961 Z M121.030421,46.6185801 L123.237205,46.6185801 L123.237205,43.845355 L121.030421,43.845355 L121.030421,46.6185801 Z M128.083827,39.5768127 C128.083827,39.8035498 128.116038,40.4213369 128.161848,41.4172583 L128.161848,41.4574396 C128.161848,41.8886707 127.714479,42.1067976 126.817593,42.1067976 C126.474013,42.1067976 126.298644,41.9510952 126.298644,41.6411254 L126.298644,41.0950906 L122.064024,41.0950906 L122.064024,41.7006798 C122.064024,42.1469789 121.634549,42.3665408 120.775599,42.3665408 C120.434167,42.3665408 120.260946,42.2223187 120.260946,41.9403323 L120.260946,41.9238293 C120.286714,41.154645 120.298883,40.5009819 120.298883,39.9628399 L120.298883,38.6074396 C120.298883,37.686858 120.255219,36.9858384 120.163598,36.5036631 C120.731936,36.6507553 121.406211,36.8975831 122.197161,37.2484517 L126.111822,37.2484517 C126.684455,36.5983761 127.055951,36.2762085 127.221299,36.2762085 C127.352289,36.2762085 127.6565,36.4756798 128.143954,36.8660121 C128.624249,37.2405589 128.875492,37.5117825 128.875492,37.67179 C128.875492,37.7944864 128.831829,37.8827417 128.758102,37.9387085 C128.296417,38.3168429 128.06808,38.5120091 128.06808,38.5120091 L128.083827,39.5768127 Z M129.137472,48.2373112 C129.137472,48.5759819 129.165388,49.5568353 129.221219,51.1906344 C129.221219,51.6369335 128.759534,51.8564955 127.853342,51.8564955 C127.523363,51.8564955 127.356583,51.7086858 127.356583,51.4101964 L127.356583,50.5412764 L121.030421,50.5412764 L121.030421,51.3305514 C121.030421,51.732364 120.586631,51.935423 119.70406,51.935423 C119.376228,51.935423 119.209448,51.8084215 119.209448,51.5529834 C119.243091,50.0433157 119.264564,48.9505287 119.264564,48.2774924 L119.264564,45.4439955 C119.264564,44.0964879 119.209448,43.1558157 119.092059,42.6334592 C119.847218,42.8329305 120.550841,43.0675604 121.199348,43.3430891 L127.12753,43.3430891 C127.714479,42.6657477 128.075953,42.3263595 128.219112,42.3263595 C128.342228,42.3263595 128.672207,42.5215257 129.193303,42.9161631 C129.720126,43.2914275 129.984253,43.5583459 129.984253,43.7054381 C129.984253,43.8252644 129.942737,43.9214124 129.864715,43.988142 C129.370104,44.4588369 129.11743,44.7013595 129.11743,44.7135574 L129.137472,48.2373112 Z M121.892949,35.3470166 C120.550841,35.3470166 119.614586,35.4072885 119.092059,35.5263973 L118.7041,34.5419562 C119.550881,34.725642 120.855052,34.8210725 122.616614,34.8210725 L126.934982,34.8210725 C127.694437,33.8093656 128.12749,33.3027946 128.254901,33.3027946 C128.370144,33.3027946 128.694397,33.5819109 129.221219,34.1315332 C129.742315,34.6897659 130,35.0248489 130,35.1396526 C130,35.280287 129.952758,35.3470166 129.848968,35.3470166 L121.892949,35.3470166 Z M113.896847,33.2195619 L114.108005,33 C114.767964,33.2310423 115.35205,33.6020015 115.853104,34.1164653 C116.350579,34.6259063 116.603253,35.1396526 116.603253,35.6706193 C116.603253,36.4118202 116.290452,36.7863671 115.678451,36.7863671 C115.292639,36.7863671 115.020639,36.3953172 114.855291,35.611065 C114.676343,34.6782855 114.354237,33.8847054 113.896847,33.2195619 Z M118.956774,44.0441088 C118.956774,44.7501511 118.684058,45.1003021 118.131467,45.1003021 C117.801487,45.1003021 117.567424,44.7056647 117.427844,43.9242825 C117.29256,43.2512462 117.036307,42.6334592 116.638327,42.0680514 L116.638327,47.9739804 C116.638327,48.3370468 116.664811,49.4649924 116.714201,51.3542296 C116.714201,51.7847432 116.262536,52 115.369945,52 C115.012049,52 114.830954,51.8328172 114.830954,51.4898414 C114.887501,50.0626888 114.908975,48.9347432 114.908975,48.0938066 L114.908975,43.1156344 C114.322742,43.7492069 113.413688,44.4710347 112.187537,45.2796828 L112,45.0766239 C114.108005,42.7970544 115.692767,40.3653701 116.752137,37.7743958 L114.855291,37.7743958 C113.768004,37.7743958 113.030023,37.8346677 112.648507,37.9537764 L112.226906,37.0453927 C113.042192,37.1810045 114.040005,37.2484517 115.22106,37.2484517 L116.603253,37.2484517 C117.201654,36.6385574 117.576729,36.3357628 117.729908,36.3357628 C117.873066,36.3357628 118.172983,36.5467145 118.630373,36.9657477 C119.092059,37.3725831 119.324691,37.655287 119.324691,37.8188822 C119.324691,37.9387085 119.264564,38.0219411 119.149322,38.0779079 L118.366246,38.463935 C117.918877,39.4053248 117.340518,40.3574773 116.638327,41.3182402 L116.638327,41.6569109 C117.236728,41.8083082 117.775719,42.1111027 118.246709,42.5695997 C118.7041,43.0316843 118.943174,43.5224698 118.956774,44.0441088 Z" id="Fill-4"></path>
                    <path d="M159.028797,41.5286622 C159.677085,41.6802541 160.620959,41.7520986 161.854706,41.7520986 L163.84598,41.7520986 L163.84598,37.8408833 L161.988933,37.8408833 C161.507715,39.0586478 160.898695,40.0637526 160.173297,40.8619451 L159.889136,40.7182561 C160.577407,38.7626484 160.918686,36.6597595 160.918686,34.420366 L160.918686,34.2371625 C162.64222,34.6287151 163.502558,34.8959767 163.502558,35.043258 C163.502558,35.167549 163.444727,35.2551993 163.326207,35.3105195 C162.829995,35.5267715 162.580104,35.6381305 162.580104,35.6381305 C162.492999,36.208576 162.34592,36.7474098 162.146008,37.2740301 L163.84598,37.2740301 L163.84598,35.6338199 C163.84598,34.5841715 163.805997,33.7019209 163.730316,33 C165.590219,33.3233003 166.526239,33.5905619 166.526239,33.7902896 C166.526239,33.8980564 166.470549,33.9699009 166.369878,34.0137261 C165.87438,34.2852983 165.623775,34.4368903 165.623775,34.479997 L165.623775,37.2740301 L166.964619,37.2740301 C167.612907,36.3120321 168.006307,35.8378583 168.15053,35.8378583 C168.287613,35.8378583 168.606759,36.0964985 169.104399,36.6281479 C169.602039,37.1547682 169.850502,37.4730394 169.850502,37.5736217 C169.850502,37.7417379 169.794812,37.8207668 169.679148,37.8207668 L165.623775,37.8207668 L165.623775,41.7319822 L167.898497,41.7319822 C168.565348,40.7462754 168.963746,40.2555774 169.104399,40.2555774 C169.235056,40.2555774 169.558486,40.5149361 170.083971,41.0451486 C170.60303,41.5681767 170.865773,41.8878847 170.865773,41.9920593 C170.865773,42.1989715 170.800087,42.2988354 170.675142,42.2988354 L166.352029,42.2988354 C166.682599,43.4641534 167.292333,44.5770249 168.168379,45.6431975 C169.037285,46.6921274 169.976875,47.4508054 171,47.9098919 L170.925033,48.2971338 C170.512356,48.4602208 170.218912,48.7598124 170.046131,49.210996 C169.879775,49.6262573 169.73698,49.8338879 169.62203,49.8338879 C169.211495,49.8338879 168.573202,49.1075399 167.712863,47.6469409 C166.843957,46.1777206 166.234937,44.3938214 165.89223,42.2988354 L165.623775,42.2988354 L165.623775,48.3373667 C165.623775,48.5924147 165.653762,49.6262573 165.723018,51.4338652 C165.723018,51.8167965 165.249653,52 164.305779,52 C163.985919,52 163.827417,51.8721168 163.827417,51.6170687 C163.837412,50.5523331 163.84598,49.3582772 163.84598,48.0334644 L163.84598,44.7688497 C162.685772,46.8365348 160.665225,48.6118128 157.781484,50.1011495 L157.610844,49.8173637 C160.301813,47.7496786 162.193844,45.2401497 163.289794,42.2988354 L161.686208,42.2988354 C160.59954,42.2988354 159.835588,42.3512819 159.389354,42.4583302 L159.028797,41.5286622 Z M159.712784,40.6988581 C159.712784,40.8461393 159.653524,40.921576 159.524295,40.921576 L157.380945,40.921576 L157.380945,45.9025562 C158.256991,45.590751 159.108048,45.216441 159.924834,44.7688497 L160.057634,45.0519171 C158.313395,46.5412539 156.536314,47.6584361 154.723533,48.4207063 C154.695688,48.4322015 154.677839,48.5442789 154.664274,48.7598124 C154.652136,49.2311125 154.562889,49.4703547 154.394391,49.4703547 C154.231605,49.4703547 153.767522,48.6003176 153,46.8559328 C153.547618,46.8164184 154.43009,46.6526129 155.641704,46.368827 L155.641704,40.921576 C154.596446,40.961809 153.914601,41.0214399 153.593312,41.1011873 L153.249891,40.1514029 C153.797509,40.3310141 154.529332,40.4150722 155.451073,40.4150722 L155.641704,40.4150722 L155.641704,35.5698782 C154.596446,35.5698782 153.846773,35.6338199 153.399111,35.7538002 L153.057832,34.8040157 C153.682559,34.9635105 154.620721,35.043258 155.869462,35.043258 L157.455912,35.043258 C158.033517,34.1574151 158.38979,33.7062316 158.526873,33.7062316 C158.681806,33.7062316 158.986672,33.9540951 159.447186,34.4368903 C159.906985,34.9239961 160.135457,35.219277 160.135457,35.3263253 C160.135457,35.4786357 160.073341,35.5547909 159.942684,35.5547909 L157.360954,35.5547909 L157.360954,40.3913635 L157.588711,40.3913635 C158.013526,39.5292294 158.299115,39.0981623 158.451192,39.0981623 C158.590417,39.0981623 158.836024,39.3330939 159.179445,39.8079861 C159.510729,40.2792861 159.689223,40.5788777 159.712784,40.6988581 Z" id="Fill-5"></path>
                    <path d="M202.912119,49.4745431 L203.029719,49.1917091 C207.31854,49.1917091 209.459007,49.8726588 209.459007,51.23241 C209.459007,51.6742039 209.256075,51.8968909 208.845192,51.8968909 C208.539001,51.8968909 207.919449,51.6068966 206.985818,51.029772 C205.88224,50.3294894 204.523385,49.8132278 202.912119,49.4745431 Z M197.91913,48.0424722 L205.850689,48.0424722 L205.850689,46.6898813 L197.91913,46.6898813 L197.91913,48.0424722 Z M197.91913,46.1850763 L205.850689,46.1850763 L205.850689,44.9320143 L197.91913,44.9320143 L197.91913,46.1850763 Z M197.91913,44.4272093 L205.850689,44.4272093 L205.850689,43.2536273 L197.91913,43.2536273 L197.91913,44.4272093 Z M196.073381,42.1237234 C196.57103,42.2082156 197.226436,42.4065574 198.033145,42.7287733 L205.639152,42.7287733 C206.151143,42.1237234 206.493188,41.8215564 206.658832,41.8215564 C206.810135,41.8215564 207.139272,42.0292067 207.63477,42.4266064 C208.138156,42.8325985 208.383396,43.1147164 208.383396,43.2779725 C208.383396,43.3846618 208.347542,43.4569813 208.2744,43.5006595 C207.811887,43.794234 207.576687,43.9617863 207.576687,44.0011683 L207.576687,46.0619182 C207.576687,46.3719616 207.602502,47.1839457 207.63477,48.4842661 C207.63477,48.8336914 207.228906,49.00912 206.405705,49.00912 C206.034977,49.00912 205.850689,48.8974185 205.850689,48.6668551 L205.850689,48.5673262 L197.91913,48.5673262 L197.91913,48.8694931 C197.91913,49.2203505 197.498924,49.3950631 196.670704,49.3950631 C196.295674,49.3950631 196.109234,49.2804975 196.109234,49.048502 C196.163015,47.8126248 196.18883,46.9490861 196.18883,46.4636141 L196.18883,44.9126814 C196.18883,43.6037686 196.146522,42.6772188 196.073381,42.1237234 Z M199.142459,48.8902581 C200.631822,49.6578481 201.373277,50.1347277 201.373277,50.322329 C201.373277,50.484869 201.273604,50.564349 201.087881,50.564349 L201.028364,50.564349 C200.631822,50.5127944 200.303402,50.484869 200.04669,50.484869 C199.97068,50.484869 199.911162,50.4927454 199.875309,50.504202 C198.172257,51.2839646 195.973707,51.7859054 193.28683,52 L193.187156,51.6978331 C195.95578,50.9982664 197.942793,50.0631242 199.142459,48.8902581 Z M193,36.9969097 C193,36.6875824 193.201498,36.4205012 193.61525,36.1856416 C194.434149,35.688713 194.919608,34.9254193 195.073062,33.8907481 L195.382121,33.8907481 C195.457414,34.252346 195.505458,34.6189561 195.537726,35.000603 L201.523863,35.000603 C200.92654,34.1886188 200.279739,33.6601847 199.589913,33.4059921 L199.647996,33.0995289 C200.066051,33.0358018 200.522827,33 201.010437,33 C202.496215,33 203.234802,33.4131524 203.234802,34.252346 C203.234802,34.5187111 203.121504,34.7657434 202.890606,35.000603 L208.138156,35.000603 C208.662338,34.3525909 209.012987,34.030375 209.192256,34.030375 C209.371524,34.030375 209.71572,34.2924439 210.235599,34.8172979 C210.745439,35.3385717 211,35.688713 211,35.8634257 C211,36.0381383 210.901044,36.1297908 210.707434,36.1297908 L210.67158,36.1297908 C210.556131,36.1297908 210.402677,36.1140381 210.207633,36.0868287 C210.016174,36.0631995 209.890686,36.0467307 209.825432,36.0467307 C209.74512,36.0467307 209.699944,36.0631995 209.671978,36.0868287 C209.263246,36.3295647 208.86527,36.5322028 208.479484,36.6904466 C208.917616,37.0964387 209.138475,37.3592237 209.138475,37.4823818 C209.138475,37.6298851 209.066768,37.7050688 208.923353,37.7050688 L206.523305,37.7050688 L206.523305,38.9781798 L208.407059,38.9781798 C208.86527,38.2621443 209.159987,37.9084228 209.285475,37.9084228 C209.388734,37.9084228 209.636125,38.0874317 210.016174,38.4490296 C210.402677,38.8306765 210.594136,39.0769927 210.594136,39.1965706 C210.594136,39.3319013 210.522428,39.3999246 210.385467,39.3999246 L206.523305,39.3999246 L206.523305,41.0382137 L208.156083,41.0382137 L208.156083,40.8556246 C208.156083,40.3701526 208.116644,39.9842095 208.038483,39.7020916 C209.435344,39.8775203 210.133774,40.0479367 210.133774,40.2076126 C210.133774,40.3300546 209.998964,40.4417562 209.730061,40.5491615 C209.600271,40.6085924 209.536451,40.6443942 209.536451,40.6766158 L209.536451,40.8556246 C209.536451,41.0145845 209.550793,41.3088751 209.578759,41.7420765 L209.578759,41.7657057 C209.578759,42.0485397 209.327066,42.2153759 208.829416,42.2633503 C208.72544,42.2791031 208.637957,42.2876955 208.574138,42.2876955 C208.295913,42.2876955 208.156083,42.1638214 208.156083,41.9253816 L208.156083,41.4993405 L203.505856,41.4993405 L203.505856,41.9017524 C203.505856,42.1874505 203.177436,42.3270774 202.526333,42.3270774 C202.229464,42.3270774 202.083898,42.2196721 202.083898,42.0048615 L202.083898,41.9812323 C202.093937,41.7936311 202.106127,41.5394385 202.106127,41.2172225 L202.106127,41.0145845 C202.106127,40.4102506 202.073859,39.9720369 202.005737,39.7020916 C203.402597,39.8775203 204.101028,40.0479367 204.101028,40.2076126 C204.101028,40.3586961 203.954028,40.4739778 203.661461,40.5491615 C203.555334,40.5770869 203.505856,40.6085924 203.505856,40.6286414 L203.505856,41.0382137 L205.005976,41.0382137 L205.005976,39.3999246 L203.717393,39.3999246 C202.603777,39.3999246 201.868775,39.447183 201.508804,39.5431317 L201.23775,38.7511965 C201.634292,38.8865272 202.496215,38.9545506 203.814915,38.9545506 L205.005976,38.9545506 L205.005976,37.6807236 L203.484344,37.6807236 C203.177436,38.0709629 202.719226,38.4096476 202.106127,38.6953458 L201.948371,38.5120407 C202.591586,37.7451668 202.993865,36.7584699 203.157358,35.5655549 C204.517648,35.9271528 205.195283,36.1820614 205.195283,36.3295647 C205.195283,36.436254 205.025337,36.5042774 204.681141,36.5322028 L204.388575,36.5715847 C204.250896,36.8143207 204.087403,37.0370077 203.908135,37.2396458 L207.063262,37.2396458 C207.483467,36.5794611 207.741614,36.2493688 207.847741,36.2493688 C207.913712,36.2493688 207.976815,36.2694178 208.038483,36.3087997 L208.2744,35.5011117 L195.516931,35.5011117 L195.516931,35.6206897 C195.516931,36.1061617 195.43375,36.4999812 195.282448,36.7942717 C195.43375,36.8902205 195.987332,36.9331826 196.931719,36.9331826 L199.126683,36.9331826 C199.560513,36.2615414 199.863118,35.9271528 200.026611,35.9271528 C200.132021,35.9271528 200.360768,36.1025815 200.719305,36.4520068 C201.092184,36.8028641 201.273604,37.0291313 201.273604,37.1365366 C201.273604,37.2754475 201.221974,37.3434709 201.105808,37.3434709 L198.66417,37.3434709 L198.66417,38.7948747 L199.126683,38.7948747 C199.47303,38.13469 199.711816,37.8045977 199.859533,37.8045977 C199.997211,37.8045977 200.225958,37.9793103 200.552227,38.3258715 C200.880647,38.6953458 201.046291,38.922329 201.046291,39.0175617 C201.046291,39.1528924 200.986057,39.2209158 200.87491,39.2209158 L198.66417,39.2209158 L198.66417,40.6923686 C199.791411,40.5570379 200.667676,40.4102506 201.299418,40.2505747 L201.373277,40.5491615 C199.888933,41.2651969 197.867501,41.8179763 195.298223,42.2082156 C195.26237,42.2082156 195.224365,42.2876955 195.188511,42.4466554 C195.12756,42.7166007 195.027886,42.8519314 194.902398,42.8519314 C194.772608,42.8519314 194.503705,42.1874505 194.09569,40.8556246 C194.362441,40.8670812 194.649271,40.8706614 194.961915,40.8706614 C195.625209,40.8706614 196.353757,40.8391558 197.150426,40.7718485 L197.150426,39.2209158 C196.009561,39.2209158 195.278145,39.2602977 194.961915,39.3404937 L194.669349,38.5521387 C195.155525,38.7118146 195.884073,38.7948747 196.860011,38.7948747 L197.150426,38.7948747 L197.150426,37.3434709 C196.174488,37.3434709 195.533424,37.3785566 195.207155,37.4587526 L195.095291,37.1608819 C194.812764,37.5224797 194.414071,37.7050688 193.900645,37.7050688 C193.301171,37.7050688 193,37.466629 193,36.9969097 Z" id="Fill-6"></path>
                    <path d="M241.938278,33.2631122 L242.110353,33 C243.881793,33.2824692 244.770012,33.9241189 244.770012,34.9199306 C244.770012,35.5924081 244.474415,35.927213 243.888933,35.927213 C243.649028,35.927213 243.371995,35.564448 243.068544,34.8396347 C242.820071,34.2345483 242.447362,33.7090408 241.938278,33.2631122 Z M238.553193,42.9875104 L242.493772,42.9875104 L242.493772,41.0840691 L238.553193,41.0840691 L238.553193,42.9875104 Z M238.553193,40.6022942 L242.493772,40.6022942 L242.493772,38.8221644 L238.553193,38.8221644 L238.553193,40.6022942 Z M238.553193,38.2966569 L242.493772,38.2966569 L242.493772,36.5803336 L238.553193,36.5803336 L238.553193,38.2966569 Z M248.556367,45.6724021 C249.285363,44.5568636 249.714478,43.9955098 249.856565,43.9955098 C250.009361,43.9955098 250.374217,44.277979 250.943276,44.8436344 C251.522332,45.4128745 251.807933,45.7641687 251.807933,45.8953664 C251.807933,46.0588257 251.709401,46.1376877 251.522332,46.1376877 L244.727886,46.1376877 C245.44403,46.782922 246.50361,47.3449928 247.904482,47.81458 C249.306783,48.2927704 250.666244,48.5236209 251.97858,48.5236209 L252,48.5236209 L251.94288,48.9301185 C251.482348,49.0376575 251.197461,49.3875179 251.078223,49.9811335 C251.004681,50.359671 250.856168,50.546072 250.643395,50.546072 C249.927251,50.546072 248.874812,50.1166327 247.485363,49.2527356 C246.108766,48.3759339 245.014201,47.3328051 244.210948,46.1226323 L244.060294,46.1226323 L244.060294,47.8783865 C244.060294,48.296355 244.078144,49.4986416 244.117414,51.4744925 C244.117414,51.8286544 243.653312,52 242.719397,52 C242.375962,52 242.206029,51.8645008 242.206029,51.5978039 L242.206029,51.5547883 C242.233875,49.3480869 242.245299,47.9780394 242.245299,47.451815 L242.245299,46.3649536 C240.571678,48.7343974 237.898453,50.2442457 234.229909,50.8930647 L234.094962,50.5862199 C236.826021,49.5904083 238.878064,48.1013508 240.254661,46.1226323 L237.402221,46.1226323 C236.038477,46.1226323 235.090282,46.1778356 234.559064,46.301864 L234.212059,45.349068 C234.886077,45.5369029 236.181277,45.6322542 238.092662,45.6322542 L242.245299,45.6322542 L242.245299,45.3734435 C242.245299,44.572636 242.197461,43.983322 242.110353,43.5933137 C244.060294,43.8879707 245.037763,44.131009 245.037763,44.3181269 C245.037763,44.4658139 244.84284,44.6048977 244.462277,44.7282092 C244.194526,44.8199759 244.060294,44.8916686 244.060294,44.9475889 L244.060294,45.6322542 L248.556367,45.6724021 Z M247.94518,36.0705984 C248.632765,35.0511282 249.064736,34.5370915 249.243237,34.5370915 C249.396033,34.5370915 249.740182,34.8037884 250.277112,35.3450683 C250.812614,35.8827636 251.078223,36.2096823 251.078223,36.3329937 C251.078223,36.4928685 251.004681,36.5803336 250.851884,36.5803336 L244.29163,36.5803336 L244.29163,38.2966569 L246.663546,38.2966569 C247.377549,37.3094483 247.782388,36.8190703 247.887346,36.8190703 C248.012297,36.8190703 248.333598,37.0821825 248.841253,37.6041054 C249.351051,38.1331975 249.606664,38.4479285 249.606664,38.5597691 C249.606664,38.7346993 249.535978,38.8221644 249.396033,38.8221644 L244.29163,38.8221644 L244.29163,40.6022942 L246.699246,40.6022942 C247.377549,39.6071995 247.782388,39.1046336 247.923046,39.1046336 C248.052281,39.1046336 248.365014,39.3684628 248.864816,39.8932533 C249.361047,40.4158931 249.606664,40.7342087 249.606664,40.8410309 C249.606664,41.0044902 249.535978,41.0840691 249.396033,41.0840691 L244.268068,41.0840691 L244.268068,42.9875104 L248.137247,42.9875104 C248.874812,41.9443816 249.305355,41.4310618 249.416739,41.4310618 C249.531694,41.4310618 249.875843,41.6934571 250.449901,42.2189646 C251.023245,42.745189 251.312416,43.079277 251.312416,43.226964 C251.312416,43.4026111 251.236731,43.4900762 251.078223,43.4900762 L238.536771,43.4900762 L238.536771,43.9955098 C238.536771,44.2901668 238.076954,44.4414384 237.172313,44.4414384 C236.855296,44.4414384 236.692503,44.3260131 236.692503,44.0987473 L236.692503,44.0750887 C236.720349,42.4741906 236.734629,41.0682967 236.734629,39.8538224 L236.734629,38.2335673 C236.060611,38.8974417 235.217374,39.523319 234.212059,40.1169346 L234,39.8538224 C235.705752,38.3683496 237.110908,36.0863708 238.209758,33 C239.91551,33.5376953 240.771599,33.9119312 240.771599,34.1112369 C240.771599,34.2861671 240.548116,34.3894046 240.099722,34.4130632 C239.857676,34.4381556 239.730583,34.4697004 239.719159,34.493359 C239.437128,35.0511282 239.092265,35.5730511 238.687426,36.0705984 L247.94518,36.0705984 Z" id="Fill-7"></path>
                    <path d="M284.421125,41.5788162 L286.886782,41.5788162 L286.886782,40.2237752 L284.421125,40.2237752 L284.421125,41.5788162 Z M284.421125,39.7407547 L286.886782,39.7407547 L286.886782,38.4409776 L284.421125,38.4409776 L284.421125,39.7407547 Z M280.651937,41.5788162 L282.874598,41.5788162 L282.874598,40.2237752 L280.651937,40.2237752 L280.651937,41.5788162 Z M280.652623,39.7414724 L282.875284,39.7414724 L282.875284,38.4416953 L280.652623,38.4416953 L280.652623,39.7414724 Z M279.770561,46.6817512 L279.900982,46.4147622 C281.578618,46.4829449 282.415376,47.0126166 282.415376,47.9980357 C282.415376,48.6274695 282.154533,48.9468515 281.623922,48.9468515 C281.334249,48.9468515 281.080269,48.703547 280.873654,48.2212443 C280.640268,47.6233899 280.2744,47.1130964 279.770561,46.6817512 Z M287.288344,45.6496808 C287.770218,45.0281419 288.049595,44.720961 288.136771,44.720961 C288.258956,44.720961 288.503325,44.8838817 288.876743,45.2233596 C289.225449,45.5736033 289.405981,45.8011181 289.405981,45.908775 C289.405981,46.0487289 289.345575,46.1161939 289.224077,46.1161939 L286.722039,46.1161939 L286.722039,47.730329 C286.722039,48.5162241 286.481788,49.0738866 286.001287,49.4133646 C285.524905,49.7485362 285.181689,49.9193518 284.97576,49.9193518 C284.822687,49.9193518 284.743061,49.8360972 284.71629,49.6760473 C284.619503,49.2698221 284.489768,48.9669475 284.331889,48.7638349 C284.173324,48.5757942 283.690763,48.3210063 282.893818,47.9980357 L282.913038,47.6513807 C283.480716,47.7066445 283.982496,47.730329 284.421125,47.730329 C284.558411,47.730329 284.712171,47.7267405 284.880347,47.7152571 C285.103436,47.6987497 285.216011,47.5953991 285.216011,47.4080762 L285.216011,47.3922865 L285.216011,46.1319835 L280.667038,46.1319835 C279.677206,46.1319835 278.955082,46.1965776 278.497919,46.3157179 L278.169119,45.3661844 C278.939294,45.5542251 279.879703,45.6496808 280.98211,45.6496808 L285.216011,45.6496808 L285.216011,45.3274279 C285.216011,44.700865 285.174139,44.2788501 285.103436,44.0506176 C286.599854,44.2659313 287.343258,44.4855513 287.343258,44.720961 C287.343258,44.8128282 287.288344,44.8838817 287.179888,44.940581 C286.873053,45.0991954 286.722039,45.1910626 286.722039,45.1910626 L286.722039,45.6496808 L287.288344,45.6496808 Z M286.907375,36.3165489 C287.44485,35.575152 287.759235,35.1997885 287.86014,35.1997885 C287.997426,35.1997885 288.264447,35.4072073 288.672873,35.8141503 C289.088163,36.228988 289.294092,36.495977 289.294092,36.6036339 C289.294092,36.7392815 289.233,36.8031579 289.109443,36.8031579 L284.421125,36.8031579 L284.421125,37.9593926 L286.683599,37.9593926 C287.160668,37.3737393 287.469561,37.0859366 287.602729,37.0859366 C287.713244,37.0859366 287.963791,37.2538813 288.357802,37.5883353 C288.74838,37.9436029 288.946759,38.1861897 288.946759,38.3218373 C288.946759,38.4180108 288.906946,38.4976769 288.834184,38.5651418 C288.490969,38.9161032 288.319362,39.1034261 288.319362,39.1314169 L288.319362,39.9603747 C288.319362,40.01205 288.327599,40.2036792 288.340641,40.5266498 C288.350251,40.9213916 288.36192,41.3039323 288.377022,41.6828844 C288.377022,42.0496355 288.049595,42.2290636 287.400918,42.2290636 C287.153117,42.2290636 286.97945,42.1687757 286.866875,42.0496355 L284.403964,42.0496355 L284.403964,43.3214218 C284.712171,43.3329052 285.055386,43.3415178 285.432923,43.3415178 C285.812519,43.3415178 286.217513,43.3293167 286.643786,43.3013259 C286.299198,43.0185472 285.917543,42.7673479 285.490583,42.5513164 L285.579819,42.3094474 C287.616457,42.4285876 288.632374,42.9144789 288.632374,43.7678389 C288.632374,44.2659313 288.441546,44.5178484 288.068128,44.5178484 C287.804539,44.5178484 287.541636,44.334114 287.273242,43.9709515 C287.099575,43.7520493 287.002102,43.6400861 286.97945,43.6400861 C284.575572,44.1589922 282.06461,44.4819628 279.439701,44.6168927 C279.389592,44.6168927 279.35527,44.6886639 279.329186,44.8365127 C279.268094,45.1515884 279.160324,45.302308 279.016174,45.302308 C278.857609,45.302308 278.635205,44.5652174 278.356515,43.0982133 C279.553649,43.2453443 280.92239,43.3214218 282.45313,43.3214218 L282.859496,43.3214218 L282.859496,42.0496355 L280.632717,42.0496355 L280.632717,42.2290636 C280.632717,42.5915083 280.26479,42.7752427 279.530997,42.7752427 C279.259857,42.7752427 279.126689,42.6711744 279.126689,42.4680618 L279.126689,42.4486836 C279.15346,41.5709213 279.160324,40.885506 279.160324,40.3874136 L279.160324,39.4342915 C279.160324,38.2981528 279.126689,37.5402486 279.053928,37.1455067 C279.725256,37.3888112 280.291561,37.6522117 280.747351,37.9357081 L282.859496,37.9357081 L282.859496,36.783062 L280.667038,36.783062 C279.643571,36.783062 278.926938,36.8469384 278.516453,36.9660786 L278.169119,35.9978846 C278.893989,36.1931024 279.828221,36.2971707 280.98211,36.2971707 L282.859496,36.2971707 L282.859496,36.1931024 C282.859496,35.7940543 282.816251,35.3038568 282.730447,34.7382994 C284.335321,35.0483512 285.139131,35.3038568 285.139131,35.5069694 C285.139131,35.6146262 285.090394,35.69501 284.992921,35.7509916 C284.601656,35.8981226 284.403964,35.9777887 284.403964,35.9978846 L284.403964,36.2971707 L286.907375,36.3165489 Z M277.895234,50.1590677 L289.479429,50.1590677 L289.479429,34.554565 L277.895234,34.554565 L277.895234,50.1590677 Z M289.276932,34.0320704 C289.818525,33.3423488 290.165859,33 290.323738,33 C290.483676,33 290.798747,33.1945001 291.282681,33.5856533 C291.759063,33.9646054 292,34.2315945 292,34.3945152 C292,34.5186794 291.955382,34.6105466 291.869578,34.6780116 C291.4385,35.1402183 291.227766,35.3792166 291.227766,35.4072073 L291.227766,46.8611793 C291.227766,47.1087901 291.25591,48.6123975 291.316316,51.3748725 C291.316316,51.7818154 290.866704,51.9806218 289.976404,51.9806218 C289.646917,51.9806218 289.479429,51.8650701 289.479429,51.638273 L289.479429,50.644959 L277.895234,50.644959 L277.895234,51.3547766 C277.895234,51.785404 277.456605,52 276.588957,52 C276.243683,52 276.074134,51.8650701 276.074134,51.5980811 C276.122185,49.2145582 276.146896,47.5272164 276.146896,46.5583047 L276.146896,37.0062705 C276.146896,35.1567257 276.100905,33.8770445 276,33.1593321 C276.735853,33.3624448 277.422283,33.6452234 278.062723,34.0119745 L289.276932,34.0320704 Z" id="Fill-8"></path>
                    <path d="M15.4714221,2.51217137 L15.2983289,2.51217137 C15.08232,2.10321324 14.465765,0.916203677 11.928734,0.916203677 C8.97899733,0.916203677 7.41329085,2.78366459 7.41329085,5.98247322 C7.41329085,6.57838364 7.41329085,8.15166963 8.49047402,9.52563148 C9.12204955,10.3236153 10.0776383,11.0645512 11.6812537,11.0645512 C13.8499252,11.0645512 14.9628714,10.0335644 15.7553807,9.13660576 L15.9485012,9.25482559 L15.7553807,10.9346469 C14.416412,11.6405292 12.8964822,12 11.2914364,12 C7.85246115,12 5,9.94971075 5,6.13505928 C5,2.72936594 7.16938683,0 11.8758047,0 C13.3220626,0 14.5930815,0.236439659 16,0.850907841 L15.4714221,2.51217137 Z" id="Fill-9"></path>
                    <path d="M26.7351235,6.10464085 C25.837134,6.06916938 24.9377952,6.0336979 24.0458777,6.0336979 C23.0939145,6.0336979 22.1439752,6.06916938 21.1940359,6.10464085 L21.1940359,7.854094 C21.1940359,10.108661 21.2615032,10.9003843 21.3478613,12 C21.098907,11.980136 20.6617191,11.8935856 20.1988935,11.8935856 C19.7981379,11.8935856 19.4196465,11.9645285 19.0182162,12 C19.1531507,9.3403488 19.1666442,6.6998522 19.1666442,4.04374815 C19.1666442,2.67596808 19.1194171,1.3443689 19,0 C19.3332884,0.035471475 19.9310484,0.102867278 20.1988935,0.102867278 C20.5159897,0.102867278 21.131966,0.035471475 21.3478613,0 C21.2615032,0.961276973 21.1940359,1.7146911 21.1940359,4.9851611 C22.0313048,5.02063257 22.8766698,5.05610405 23.7085414,5.05610405 C24.7225746,5.05610405 25.7231143,5.02063257 26.7351235,4.9851611 C26.7351235,4.53254508 26.7202807,2.41560745 26.7013898,1.9743423 C26.7013898,1.43446645 26.686547,1.29683713 26.6211038,0 C26.9388746,0.035471475 27.4678181,0.102867278 27.8328161,0.102867278 C28.1310215,0.102867278 28.6815544,0.035471475 29,0 C28.7827554,1.8203961 28.7665632,6.05356193 28.7665632,7.87395803 C28.7665632,9.25308897 28.7665632,10.7386343 28.9291594,12 C28.5338011,11.9645285 28.1161787,11.8935856 27.7187964,11.8935856 C27.3666172,11.8935856 26.9388746,11.9645285 26.5866955,12 C26.6055863,11.6850133 26.7202807,9.56807567 26.7202807,8.91823825 L26.7351235,6.10464085 Z" id="Fill-10"></path>
                    <path d="M39.5021198,11.1332837 C42.4613545,11.1332837 43.6116969,8.42659946 43.6116969,6.00171831 C43.6116969,3.23729881 42.5482661,0.862592359 39.5021198,0.862592359 C36.5033156,0.862592359 35.3883031,3.68062317 35.3883031,6.00171831 C35.3883031,8.5255742 36.5033156,11.1332837 39.5021198,11.1332837 M46,5.79552093 C46,9.57511885 43.3665072,12 39.5021198,12 C35.8793891,12 33,9.91534452 33,6.20447907 C33,1.90113981 36.0320143,0 39.5508751,0 C42.809001,0 46,1.72930867 46,5.79552093" id="Fill-11"></path>
                    <path d="M52.2958659,8.88276678 L52.7214204,7.74767957 C52.8946918,7.27874667 54.7078033,2.13609223 55.2144488,0 C55.4397016,0.035471475 55.6607958,0.102867278 55.9692189,0.102867278 C56.3116031,0.102867278 56.4807159,0.055335501 56.7232958,0 C56.7350783,0.035471475 57.7802511,3.53154005 58.0560992,4.37079515 C58.5481898,5.91167603 59.0797864,7.43269288 59.628017,8.93810228 C60.1194145,7.60579367 60.2233774,7.32627845 61.0280496,4.88300325 C61.5222195,3.37759385 61.8327218,2.27443098 62.4467955,0 C62.6297701,0.055335501 62.9083904,0.102867278 63.2299821,0.102867278 C63.4878098,0.102867278 63.7463307,0.07094295 64,0 C62.9721543,2.62488915 62.3927348,4.18137748 61.452911,6.90842448 C60.4978392,9.710671 60.4292237,9.91924328 59.7804958,12 C59.5247472,11.9446645 59.3376142,11.8935856 59.0991928,11.8935856 C58.8372065,11.8935856 58.5176941,11.980136 58.3610568,12 C57.7282697,9.8837718 57.6589612,9.6553355 57.3858855,8.86715933 C57.1835046,8.27194798 56.3116031,5.5959799 56.1223907,5.05610405 C55.9345646,4.49636417 55.6088144,3.602483 55.4223744,3.04629027 L54.9101843,4.49636417 C54.040362,6.97936743 53.9516471,7.25888265 53.285592,9.25308897 C53.0464775,9.9703222 52.7214204,11.089802 52.4483447,12 C52.1593281,11.929057 51.9902153,11.8935856 51.7975375,11.8935856 C51.6124837,11.8935856 51.3414873,11.9446645 51.0989074,12 L50.6712736,10.6684008 C50.0551207,8.74442802 49.5450098,7.17233225 48.759744,4.8986107 C48.2960698,3.5663021 47.697244,1.89133905 47,0 C47.340998,0.035471475 47.9224967,0.102867278 48.3307241,0.102867278 C48.7250897,0.102867278 49.0986628,0.07094295 49.5256034,0 C50.0551207,2.06514928 51.1696021,5.4782146 51.9708089,7.90588235 L52.2958659,8.88276678 Z" id="Fill-12"></path>
                    <path d="M76.609191,9.60411493 C76.609191,10.9279886 76.6775541,11.5076268 76.7288264,12 C76.240714,11.9446612 75.7033802,11.8942888 75.5003418,11.8942888 C75.2118496,11.8942888 74.9575389,11.9290529 74.351842,12 C74.4202051,10.6683221 74.5227497,9.32387371 74.5227497,7.99219581 L74.5070262,3.10961334 C74.5070262,2.46683221 74.4885682,1.8559773 74.4728447,1.16991841 L73.6299278,1.16991841 C73.4761109,1.16991841 71.8586403,1.20610145 71,1.29620433 C71.0499051,1.08336289 71.0840866,0.85491309 71.0840866,0.646328485 C71.0840866,0.441291238 71.0499051,0.208584604 71,0 C72.329662,0.0830081589 74.2048614,0.102163888 75.5003418,0.102163888 C76.8942651,0.102163888 78.3804785,0.0830081589 80,0 C79.9473604,0.299396949 79.9131789,0.524299397 79.9131789,0.665484214 C79.9131789,0.85491309 79.9473604,1.01667258 80,1.29620433 C79.0053171,1.18978361 77.805545,1.16991841 76.6433726,1.16991841 C76.6242309,1.80063852 76.609191,2.46683221 76.609191,3.12876907 L76.609191,9.60411493 Z" id="Fill-13"></path>
                    <path d="M84.9886406,2.94422752 L83.2820719,7.18643278 C83.868811,7.20601434 84.4365354,7.25636692 85.0225954,7.25636692 C85.5414249,7.25636692 86.0466724,7.22139985 86.5675392,7.18643278 L84.9886406,2.94422752 Z M87.7518829,10.0845038 L87.0503766,8.25502652 C86.3318928,8.22355615 85.6242746,8.18858908 84.9112236,8.18858908 C84.2382393,8.18858908 83.5645759,8.22355615 82.894987,8.25502652 C82.3591801,9.58377528 81.8220151,11.0132292 81.5578466,12 C81.341215,11.9643336 81.0220398,11.8950988 80.7544759,11.8950988 C80.4699346,11.8950988 80.2336091,11.9643336 80,12 L81.9428942,7.55148901 C83.6324855,3.65126173 84.6063094,1.41406842 85.005618,0 C85.1923694,0.0503525846 85.3601062,0.0853196573 85.556365,0.0853196573 C85.7451537,0.0853196573 85.9108532,0.0503525846 86.0942092,0 C86.8996172,2.35817938 87.9026423,4.7744041 88.5063588,6.21924355 C89.1440301,7.72632438 90.2475614,10.3292733 91,12 C90.7507717,11.9804184 90.1626744,11.8950988 89.6968144,11.8950988 C89.2289172,11.8950988 88.7569453,11.9804184 88.4540684,12 L87.7518829,10.0845038 Z" id="Fill-14"></path>
                    <path d="M94.015864,0 C94.2815864,0.035471475 94.7994334,0.102157848 95.0084986,0.102157848 C95.3127479,0.102157848 95.6617564,0.055335501 96,0 C95.8441926,1.2961277 95.8441926,4.32255395 95.8441926,6.08832397 C95.8441926,8.6933491 95.8725212,10.5846881 95.9858357,12 C95.6617564,11.980136 95.3252125,11.8935856 95.0084986,11.8935856 C94.6985836,11.8935856 94.309915,11.980136 94,12 C94.1541076,9.91853385 94.1541076,7.03044635 94.1541076,4.04303872 C94.1541076,2.93561927 94.1541076,1.69411765 94.015864,0" id="Fill-15"></path>
                    <path d="M107.458749,5.16251847 L108.735436,5.16251847 C110.128527,5.16251847 110.941852,5.10718297 111.701105,5.0717115 C111.643279,5.24552173 111.604978,5.4420337 111.604978,5.64705882 C111.604978,5.84002365 111.643279,6.01738102 111.701105,6.24227017 L110.68351,6.2067987 C109.66141,6.17132722 109.442871,6.17132722 107.458749,6.17132722 L107.458749,8.51953887 C107.458749,10.3051729 107.458749,10.5492167 107.479777,11.089802 C107.496299,11.491339 107.496299,11.6289684 107.554876,12 C107.127561,11.909193 106.737045,11.8935856 106.219612,11.8935856 C105.704431,11.8935856 105.368737,11.929057 105.018024,12 C105.164467,9.06012415 105.180989,8.58693467 105.180989,5.80880875 C105.180989,3.58616612 105.093874,1.6785102 105,0 C105.648106,0.035471475 107.592426,0.102157848 108.497372,0.102157848 C109.682438,0.102157848 110.979401,0.035471475 112,0 C111.943676,0.244043748 111.905375,0.453325451 111.905375,0.666154301 C111.905375,0.783919598 111.905375,0.961276973 112,1.24150163 C110.331295,1.1350872 109.108679,1.08329885 107.458749,1.08329885 L107.458749,5.16251847 Z" id="Fill-16"></path>
                    <path d="M121.497174,11.1332837 C124.458207,11.1332837 125.607717,8.42659946 125.607717,6.00171831 C125.607717,3.23729881 124.546522,0.862592359 121.497174,0.862592359 C118.500815,0.862592359 117.383804,3.68062317 117.383804,6.00171831 C117.383804,8.5255742 118.500815,11.1332837 121.497174,11.1332837 M128,5.79552093 C128,9.57511885 125.364674,12 121.497174,12 C117.872717,12 115,9.91534452 115,6.20447907 C115,1.90113981 118.035217,0 121.552283,0 C124.807228,0 128,1.72930867 128,5.79552093" id="Fill-17"></path>
                    <path d="M136.49788,11.1332837 C139.4602,11.1332837 140.608797,8.42659946 140.608797,6.00171831 C140.608797,3.23729881 139.548554,0.862592359 136.49788,0.862592359 C133.500217,0.862592359 132.386962,3.68062317 132.386962,6.00171831 C132.386962,8.5255742 133.500217,11.1332837 136.49788,11.1332837 M143,5.79552093 C143,9.57511885 140.367769,12 136.49788,12 C132.870433,12 130,9.91534452 130,6.20447907 C130,1.90113981 133.030883,0 136.550892,0 C139.80796,0 143,1.72930867 143,5.79552093" id="Fill-18"></path>
                    <path d="M146,0 C146.41205,0.035471475 146.878413,0.102157848 147.249185,0.102157848 C147.643131,0.102157848 148.087769,0.055335501 148.499819,0 C148.375263,0.854862548 148.375263,2.13609223 148.359331,2.76606562 C148.339054,3.63724505 148.339054,4.63825007 148.339054,5.5406444 C149.665001,4.4055572 150.374683,3.67271652 151.396481,2.58870825 C152.178579,1.74945315 153.141719,0.737097251 153.677602,0 C153.876023,0.07094295 154.216381,0.102157848 154.517633,0.102157848 C154.823955,0.102157848 155.173727,0.0830032516 155.716127,0 C154.805851,0.748448123 153.552321,1.92255395 152.802086,2.6404966 C151.911362,3.49535915 151.626041,3.7635235 150.320371,5.16251847 L151.267579,6.38415607 C152.178579,7.5582619 154.750815,10.8805202 156,12 C155.163589,11.8935856 154.750815,11.8935856 154.409009,11.8935856 C153.978854,11.8935856 153.40966,11.9638191 152.89333,12 C151.626041,10.2498374 150.233471,8.3230269 148.339054,6.27774165 C148.339054,8.20100503 148.339054,10.143423 148.499819,12 C148.194221,11.980136 147.67934,11.8935856 147.249185,11.8935856 C146.878413,11.8935856 146.376566,11.980136 146,12 C146.162937,9.0445167 146.162937,8.85084245 146.162937,4.04303872 C146.162937,2.04528525 146.142661,1.74945315 146,0" id="Fill-19"></path>
                    <path d="M163,14.1380064 C164.872683,13.8873506 164.888799,12.754299 164.888799,9.7908773 L164.888799,3.18128825 C164.888799,2.2303993 164.824335,0.950888954 164.759871,0 C165.256245,0.0728650539 165.715874,0.104925678 165.90411,0.104925678 C166.158098,0.104925678 166.382434,0.0852521131 167,0 C166.985818,0.416788108 166.876229,2.60201108 166.876229,3.30297289 C166.876229,4.29466628 166.862047,7.72661032 166.862047,9.07461382 C166.862047,9.26843486 166.876229,10.0218595 166.876229,10.2972894 C166.876229,11.369863 166.862047,13.3124454 165.44577,14.2677062 C164.568413,14.8586418 163.762611,14.9271349 163.110878,15 L163,14.1380064 Z" id="Fill-20"></path>
                    <path d="M173.133158,5.19798995 C173.959003,5.19798995 175.770089,5.17812592 176.629387,5.0717115 C176.578878,5.26467632 176.545425,5.4420337 176.545425,5.70239432 C176.545425,5.94643807 176.578878,6.17132722 176.629387,6.29760568 C176.206953,6.2621342 175.787799,6.22666273 175.381765,6.2067987 C174.63857,6.19119125 173.877009,6.17132722 173.133158,6.17132722 L173.133158,10.9159917 C173.556248,10.9159917 175.623811,10.8649128 177,10.7939698 C176.933749,10.9479161 176.916038,11.1252734 176.916038,11.3693172 C176.916038,11.6289684 176.933749,11.8027786 177,12 C176.031814,11.929057 175.057724,11.8935856 174.023942,11.8935856 C173.051164,11.8935856 172.031158,11.929057 171,12 C171.032798,11.2629027 171.062316,10.5492167 171.078058,9.81282885 C171.110856,8.79976352 171.14431,6.6636713 171.14431,5.85634053 C171.14431,5.127047 171.110856,1.74945315 171,0 C171.790423,0.055335501 173.051164,0.102157848 173.925549,0.102157848 C174.665464,0.102157848 175.737291,0.035471475 176.900951,0 C176.85569,0.209281703 176.822893,0.350458173 176.822893,0.559739876 C176.822893,0.820100503 176.85569,1.06414425 176.900951,1.20603015 L175.381765,1.11877032 C174.782224,1.08400828 174.622171,1.08400828 173.133158,1.08400828 L173.133158,5.19798995 Z" id="Fill-21"></path>
                    <path d="M184.299547,8.88276678 L184.722347,7.74767957 C184.895625,7.27874667 186.708118,2.13609223 187.221715,0 C187.440739,0.035471475 187.660456,0.102867278 187.968198,0.102867278 C188.312676,0.102867278 188.480409,0.055335501 188.725078,0 C188.734089,0.035471475 189.781384,3.53154005 190.055164,4.37079515 C190.547968,5.91167603 191.083051,7.43269288 191.627839,8.93810228 C192.122722,7.60579367 192.227382,7.32627845 193.027928,4.88300325 C193.522812,3.37759385 193.828475,2.27443098 194.448812,0 C194.636645,0.055335501 194.910425,0.102867278 195.231337,0.102867278 C195.491255,0.102867278 195.745627,0.07094295 196,0 C194.975578,2.62488915 194.394056,4.18137748 193.450728,6.90842448 C192.499776,9.710671 192.430464,9.91924328 191.780324,12 C191.523872,11.9446645 191.337424,11.8935856 191.098993,11.8935856 C190.836996,11.8935856 190.51955,11.980136 190.362906,12 C189.728014,9.8837718 189.65801,9.6553355 189.387002,8.86715933 C189.183227,8.27194798 188.312676,5.5959799 188.126228,5.05610405 C187.935622,4.49636417 187.607779,3.602483 187.424104,3.04629027 L186.909814,4.49636417 C186.039956,6.97936743 185.951237,7.25888265 185.287234,9.25308897 C185.04811,9.9703222 184.722347,11.089802 184.449953,12 C184.158845,11.929057 183.987646,11.8935856 183.798426,11.8935856 C183.611979,11.8935856 183.338199,11.9446645 183.098381,12 L182.670037,10.6684008 C182.054552,8.74442802 181.54442,7.17233225 180.759123,4.8986107 C180.297509,3.5663021 179.697966,1.89133905 179,0 C179.340319,0.035471475 179.923921,0.102867278 180.331471,0.102867278 C180.724467,0.102867278 181.098055,0.07094295 181.527093,0 C182.054552,2.06514928 183.167,5.4782146 183.971705,7.90588235 L184.299547,8.88276678 Z" id="Fill-22"></path>
                    <path d="M200.132123,5.19798995 C200.959641,5.19798995 202.772832,5.17812592 203.63185,5.0717115 C203.582632,5.26467632 203.54982,5.4420337 203.54982,5.70239432 C203.54982,5.94643807 203.582632,6.17132722 203.63185,6.29760568 C203.208575,6.2621342 202.789894,6.22666273 202.381713,6.2067987 C201.637537,6.19119125 200.87958,6.17132722 200.132123,6.17132722 L200.132123,10.9159917 C200.555398,10.9159917 202.625834,10.8649128 204,10.7939698 C203.934376,10.9479161 203.916001,11.1252734 203.916001,11.3693172 C203.916001,11.6289684 203.934376,11.8027786 204,12 C203.030078,11.929057 202.056874,11.8935856 201.023297,11.8935856 C200.052062,11.8935856 199.032921,11.929057 198,12 C198.032812,11.2629027 198.061687,10.5492167 198.079405,9.81282885 C198.114842,8.79976352 198.141748,6.6636713 198.141748,5.85634053 C198.141748,5.127047 198.114842,1.74945315 198,0 C198.792738,0.055335501 200.052062,0.102157848 200.924861,0.102157848 C201.669036,0.102157848 202.740676,0.035471475 203.906814,0 C203.856283,0.209281703 203.822815,0.350458173 203.822815,0.559739876 C203.822815,0.820100503 203.856283,1.06414425 203.906814,1.20603015 L202.381713,1.11877032 C201.783878,1.08400828 201.624412,1.08400828 200.132123,1.08400828 L200.132123,5.19798995 Z" id="Fill-23"></path>
                    <path d="M228.13189,5.19798995 C228.958005,5.19798995 230.770997,5.17812592 231.629265,5.0717115 C231.580052,5.26467632 231.547244,5.4420337 231.547244,5.70239432 C231.547244,5.94643807 231.580052,6.17132722 231.629265,6.29760568 C231.208005,6.2621342 230.787402,6.22666273 230.381234,6.2067987 C229.639764,6.19119125 228.875984,6.17132722 228.13189,6.17132722 L228.13189,10.9159917 C228.555118,10.9159917 230.621391,10.8649128 232,10.7939698 C231.933727,10.9479161 231.917979,11.1252734 231.917979,11.3693172 C231.917979,11.6289684 231.933727,11.8027786 232,12 C231.030184,11.929057 230.059055,11.8935856 229.020997,11.8935856 C228.0479,11.8935856 227.031496,11.929057 226,12 C226.03084,11.2629027 226.060367,10.5492167 226.076115,9.81282885 C226.112861,8.79976352 226.142388,6.6636713 226.142388,5.85634053 C226.142388,5.127047 226.112861,1.74945315 226,0 C226.790682,0.055335501 228.0479,0.102157848 228.923228,0.102157848 C229.666667,0.102157848 230.738189,0.035471475 231.904856,0 C231.853675,0.209281703 231.820866,0.350458173 231.820866,0.559739876 C231.820866,0.820100503 231.853675,1.06414425 231.904856,1.20603015 L230.381234,1.11877032 C229.780184,1.08400828 229.622703,1.08400828 228.13189,1.08400828 L228.13189,5.19798995 Z" id="Fill-24"></path>
                    <path d="M207.12423,4.7758794 C207.12423,4.0040201 207.12423,3.83020987 207.07067,2.27372155 C207.05356,1.90765593 207.016366,0.334850724 207,0 C207.454516,0.0830032516 207.801169,0.102157848 208.264612,0.102157848 C208.719129,0.102157848 209.08661,0.07094295 209.547821,0 C209.417641,2.6404966 209.361849,4.84753178 209.361849,7.5391073 C209.361849,8.76429205 209.399044,9.89937925 209.417641,10.8649128 L209.747184,10.8649128 C210.280553,10.8649128 212.92136,10.8649128 214,10.7031629 C213.950903,10.9003843 213.912965,10.9982855 213.912965,11.4047886 C213.912965,11.6644398 213.931562,11.7708543 214,12 C213.070138,11.9638191 211.493836,11.8935856 210.502232,11.8935856 C209.323911,11.8935856 208.339001,11.929057 207,12 C207,11.7197753 207.12423,7.66467632 207.12423,7.22341117 L207.12423,4.7758794 Z" id="Fill-25"></path>
                    <path d="M217.132258,4.7758794 C217.132258,4.0040201 217.132258,3.83020987 217.074302,2.27372155 C217.054984,1.90765593 217.019319,0.334850724 217,0 C217.457701,0.0830032516 217.802463,0.102157848 218.262393,0.102157848 C218.721579,0.102157848 219.086403,0.07094295 219.546333,0 C219.414818,2.6404966 219.36132,4.84753178 219.36132,7.5391073 C219.36132,8.76429205 219.397728,9.89937925 219.414818,10.8649128 L219.746948,10.8649128 C220.28118,10.8649128 222.916676,10.8649128 224,10.7031629 C223.942044,10.9003843 223.904893,10.9982855 223.904893,11.4047886 C223.904893,11.6644398 223.921983,11.7708543 224,12 C223.06528,11.9638191 221.488589,11.8935856 220.497399,11.8935856 C219.323426,11.8935856 218.337438,11.929057 217,12 C217,11.7197753 217.132258,7.66467632 217.132258,7.22341117 L217.132258,4.7758794 Z" id="Fill-26"></path>
                    <polygon id="Fill-27" points="0 24 331 24 331 23 0 23"></polygon>
                    <path d="M237.183218,5.47782902 C237.49721,5.49343739 237.891542,5.52891096 238.322696,5.52891096 C239.972328,5.52891096 240.583575,4.25186236 240.583575,3.10961334 C240.583575,2.38027669 240.464405,1.74955658 239.886632,1.29620433 C239.444097,0.945725435 238.897791,0.85491309 238.35617,0.85491309 C238.041509,0.85491309 237.430261,0.925860234 237.183218,0.945725435 L237.183218,5.47782902 Z M240.353269,6.75062079 C240.600312,7.11741752 240.95983,7.69634622 241.212899,8.06314296 C242.512386,10.0056758 242.956929,10.6207875 244,12 C243.534702,11.9446612 243.122294,11.8935793 242.530462,11.8935793 C241.88507,11.8935793 241.6869,11.9290529 241.195492,12 C240.942424,11.5941823 240.583575,10.9478538 240.336532,10.5498404 C239.488284,9.1628237 238.467976,7.62539908 237.57755,6.29726853 L237.183218,6.29726853 L237.183218,8.78041859 C237.183218,9.28910961 237.250167,11.5431004 237.250167,12 C236.918768,11.9645264 236.554564,11.8935793 236.139478,11.8935793 C235.764561,11.8935793 235.366213,11.9446612 235,12 C235.133229,8.55551614 235.152644,8.16956368 235.152644,4.79177013 C235.152644,2.50230578 235.152644,2.25399078 235.033475,0 C235.414416,0.0354735722 235.84624,0.0830081589 236.688462,0.0830081589 C237.115599,0.0830081589 239.029681,0 239.410623,0 C240.481812,0 241.29056,0.141894289 242.002232,0.85491309 C242.496987,1.36360411 242.761437,2.08017027 242.761437,2.81376375 C242.761437,4.75629656 241.390984,5.75807024 239.886632,6.05321036 L240.353269,6.75062079 Z" id="Fill-28"></path>
                    <path d="M250.651163,7.96050842 C250.651163,9.43044635 250.70218,10.3718593 250.772875,12 C250.36401,11.9645285 249.947128,11.8935856 249.53389,11.8935856 C249.173855,11.8935856 248.671702,11.9645285 248.329159,12 C248.384549,10.6322199 248.441397,8.34289093 248.441397,7.25888265 L247.376598,5.47750517 C246.461207,3.9366243 244.935069,1.52101685 244,0 C244.66395,0.07094295 245.080832,0.102157848 245.473663,0.102157848 C245.906579,0.102157848 246.431326,0.0830032516 246.947327,0 C247.882396,1.92326338 248.564566,3.30594147 250.090704,5.9109666 C251.621215,3.35772983 251.90691,2.76677505 253.199828,0 C253.485523,0.055335501 253.847744,0.102157848 254.244948,0.102157848 C254.602796,0.102157848 254.801034,0.07094295 255,0 C254.724508,0.4689329 253.420659,2.50286728 253.14954,2.92001182 C252.33764,4.18137748 251.640893,5.49311262 250.882197,6.75093113 C250.756841,6.96305055 250.651163,7.15246822 250.651163,7.30996157 L250.651163,7.96050842 Z" id="Fill-29"></path>
                    <path d="M268.580711,0 C269.963748,0 271.175787,0.236439659 272.525308,0.851595166 L272.019152,2.51217137 L271.852257,2.51217137 C271.647059,2.10390057 271.05814,0.916203677 268.632011,0.916203677 C265.811218,0.916203677 264.313953,2.78366459 264.313953,5.98316055 C264.313953,7.26983218 264.553352,8.49120797 265.339945,9.52563148 C265.947332,10.3243027 266.859781,11.0645512 268.398085,11.0645512 C269.188782,11.0645512 270.113543,10.9002807 270.788646,10.4576436 C270.837893,9.27407068 270.837893,9.13660576 270.837893,8.91528724 C270.837893,8.08293717 270.788646,7.25402371 270.740766,6.42167364 C271.109439,6.47528495 271.499316,6.54401741 271.935705,6.54401741 C272.411081,6.54401741 272.646375,6.49040609 273,6.42167364 C272.900821,7.0327052 272.863201,8.81218856 272.863201,9.27407068 C272.863201,9.91534452 272.878249,10.3387365 272.912449,10.8123031 C271.481532,11.5724841 269.640903,12 268.022572,12 C264.735978,12 262,9.94971075 262,6.13574661 C262,2.73005327 264.076607,0 268.580711,0" id="Fill-30"></path>
                    <path d="M279.176663,5.47782902 C279.493451,5.49343739 279.88726,5.52891096 280.318574,5.52891096 C281.966811,5.52891096 282.580964,4.25186236 282.580964,3.10961334 C282.580964,2.38027669 282.465099,1.74955658 281.885102,1.29620433 C281.440393,0.945725435 280.895223,0.85491309 280.352731,0.85491309 C280.035943,0.85491309 279.425807,0.925860234 279.176663,0.945725435 L279.176663,5.47782902 Z M282.349903,6.75062079 C282.597038,7.11741752 282.960039,7.69634622 283.209183,8.06314296 C284.511832,10.0056758 284.957881,10.6207875 286,12 C285.538547,11.9446612 285.123977,11.8935793 284.529915,11.8935793 C283.884953,11.8935793 283.68537,11.9290529 283.1911,12 C282.945304,11.5941823 282.580964,10.9478538 282.33182,10.5498404 C281.492633,9.1628237 280.465918,7.62539908 279.576499,6.29726853 L279.176663,6.29726853 L279.176663,8.78041859 C279.176663,9.28910961 279.243637,11.5431004 279.243637,12 C278.914124,11.9645264 278.549784,11.8935793 278.138562,11.8935793 C277.759488,11.8935793 277.360991,11.9446612 277,12 C277.1306,8.55551614 277.149353,8.16956368 277.149353,4.79177013 C277.149353,2.50230578 277.149353,2.25399078 277.034157,0 C277.411222,0.0354735722 277.843206,0.0830081589 278.685742,0.0830081589 C279.109689,0.0830081589 281.03185,0 281.406906,0 C282.480503,0 283.289552,0.141894289 283.99814,0.85491309 C284.494419,1.36360411 284.756958,2.08017027 284.756958,2.81376375 C284.756958,4.75629656 283.390013,5.75807024 281.885102,6.05321036 L282.349903,6.75062079 Z" id="Fill-31"></path>
                    <path d="M294.498233,11.1332837 C297.459042,11.1332837 298.607327,8.42659946 298.607327,6.00171831 C298.607327,3.23729881 297.544545,0.862592359 294.498233,0.862592359 C291.501386,0.862592359 290.384193,3.68062317 290.384193,6.00171831 C290.384193,8.5255742 291.501386,11.1332837 294.498233,11.1332837 M301,5.79552093 C301,9.57511885 298.364244,12 294.498233,12 C290.874599,12 288,9.91534452 288,6.20447907 C288,1.90113981 291.032179,0 294.550525,0 C297.809534,0 301,1.72930867 301,5.79552093" id="Fill-32"></path>
                    <path d="M306.292254,1.30892608 C306.239437,2.61436541 306.239437,4.26429568 306.239437,5.73988842 C306.239437,8.4748954 306.274648,9.09483961 306.776761,9.76499303 C307.283803,10.4393305 308.216197,10.8110181 309.433099,10.8110181 C310.841549,10.8110181 311.952817,10.0941423 312.335915,9.0404463 C312.472535,8.66527197 312.558451,8.13040446 312.558451,6.72036262 C312.558451,4.48953975 312.543662,2.23500697 312.400704,0 C312.648592,0.0341701534 312.907042,0.10041841 313.18662,0.10041841 C313.462676,0.10041841 313.740141,0.0341701534 314,0 L313.947183,0.824965132 C313.859155,2.30474198 313.810563,5.84449093 313.775352,7.58019526 C313.740141,9.61018131 313.151408,10.539749 312.00493,11.2608089 C311.189437,11.7754533 310.021831,12 309.089437,12 C307.004225,12 304.504225,11.3458856 304.121127,8.68479777 C304.085915,8.44072524 304.085915,7.92538354 304.085915,7.77057183 L304.085915,3.09065551 C304.085915,2.21548117 304.05,0.875174338 304,0 C304.399296,0.0536959554 304.833099,0.10041841 305.21831,0.10041841 C305.595775,0.10041841 305.996479,0.0536959554 306.344366,0 L306.292254,1.30892608 Z" id="Fill-33"></path>
                    <path d="M319.331752,5.77333727 C319.649002,5.80880875 319.951929,5.84002365 320.270611,5.84002365 C322.242861,5.84002365 322.724107,4.16151345 322.724107,3.23570795 C322.724107,1.856577 322.033748,0.854862548 320.568526,0.854862548 C320.126667,0.854862548 319.737087,0.891043453 319.331752,0.925805498 L319.331752,5.77333727 Z M319.331752,9.25308897 C319.331752,10.8294413 319.401217,11.4203961 319.454928,12 C319.052457,11.929057 318.679348,11.8935856 318.217438,11.8935856 C317.762689,11.8935856 317.390296,11.929057 317,12 C317.087369,10.601005 317.123892,9.91924328 317.123892,9.47797813 L317.159699,5.19798995 C317.159699,4.42542122 317.159699,2.92001182 317.123892,2.20703518 L317.035807,0 C317.443291,0.035471475 317.899472,0.0830032516 318.802524,0.0830032516 C319.188524,0.0830032516 320.852833,0 321.200877,0 C322.052368,0 322.963298,0.07094295 323.798317,0.666154301 C324.470773,1.15495123 325,1.856577 325,3.1285841 C325,4.79219628 323.955868,6.6998522 320.552771,6.6998522 C320.019962,6.6998522 319.737087,6.6636713 319.331752,6.62890925 L319.331752,9.25308897 Z" id="Fill-34"></path>
                </g>
            </g>
        </g>
    </g>
</svg>